<?xml version="1.0" encoding="UTF-8"?>
<!-- Generator: Adobe Illustrator 22.0.0, SVG Export Plug-In . SVG Version: 6.00 Build 0)  -->
<svg version="1.1" id="Слой_1" xmlns="http://www.w3.org/2000/svg" xmlns:xlink="http://www.w3.org/1999/xlink" x="0px" y="0px" viewBox="0 0 65 65" style="enable-background:new 0 0 65 65;" xml:space="preserve">
<style type="text/css">
	.st0{fill:#FFFFFF;}
	.st1{fill:#FF0000;}
</style>
<g>
	<circle class="st0" cx="32.5" cy="32.5" r="32.5"/>
	<path class="st1" d="M24.4,53.1L30.7,65c-4.4-0.2-8.5-1.3-12.2-3.1l0-8.8H24.4z M32.5,0C50.4,0,65,14.6,65,32.5   c0,15.6-11,28.7-25.7,31.8l-6.8-12.5c2.2-0.9,3.8-2.3,5-4.2c1.2-1.8,1.7-4.1,1.7-6.7c0-3.8-1.2-6.8-3.6-9.1   c-2.4-2.3-5.7-3.4-10.1-3.4l0,0h-15l0,27.9C4,50.5,0,41.9,0,32.5C0,14.6,14.6,0,32.5,0z M23.9,35.1c4.6,0,6.9,2,6.9,5.9   c0,3.8-2.3,5.7-6.9,5.7l0,0h-5.5V35.1H23.9z"/>
</g>
</svg>